# xmcd
#
# Track frame offsets: 
#        150
#        14503
#        34974
#        55069
#        79786
#        102436
#        121957
#        130840
#        146809
#        168953
#        184940
#
# Disc length: 2600 seconds
#
# Revision: 0
# Processed by: cddbd v1.5.2PL0 Copyright (c) Steve Scherf et al.
# Submitted via: ExactAudioCopy v1.3
#
DISCID=970a260b
DTITLE=Black Cat Bone - Some Grace
DYEAR=2013
DGENRE=Juke Joint Blues
TTITLE0=Tell Me Tell Me
TTITLE1=Best Dress
TTITLE2=My Mistake
TTITLE3=Jelly Beans Daddy
TTITLE4=Love Her With a Feeling
TTITLE5=Muder in the First Degree
TTITLE6=Barrel House T and the Ocean Breeze
TTITLE7=Hey Little Girl
TTITLE8=Hey Bartender
TTITLE9=Long Way Home
TTITLE10=Some Grace
EXTD=
EXTT0=
EXTT1=
EXTT2=
EXTT3=
EXTT4=
EXTT5=
EXTT6=
EXTT7=
EXTT8=
EXTT9=
EXTT10=
PLAYORDER=
